<?xml version="1.0" encoding="UTF-8"?>
<svg xmlns="http://www.w3.org/2000/svg" xmlns:xlink="http://www.w3.org/1999/xlink" width="23px" height="23px" viewBox="0 0 23 23" version="1.1">
<g id="surface1">
<path style=" stroke:none;fill-rule:nonzero;fill:rgb(100%,100%,100%);fill-opacity:1;" d="M 23 11.5 C 23 5.148438 17.851562 0 11.5 0 C 5.148438 0 0 5.148438 0 11.5 C 0 17.851562 5.148438 23 11.5 23 C 17.851562 23 23 17.851562 23 11.5 Z M 23 11.5 "/>
<path style=" stroke:none;fill-rule:nonzero;fill:rgb(0%,0%,0%);fill-opacity:1;" d="M 6.3125 13.855469 C 5.910156 14.089844 5.769531 14.605469 6.003906 15.007812 C 6.234375 15.410156 6.75 15.546875 7.152344 15.3125 Z M 17.261719 9.195312 C 17.382812 8.746094 17.113281 8.28125 16.664062 8.164062 L 9.351562 6.203125 C 8.902344 6.082031 8.441406 6.347656 8.320312 6.796875 C 8.199219 7.246094 8.464844 7.707031 8.914062 7.828125 L 15.417969 9.570312 L 13.675781 16.074219 C 13.554688 16.523438 13.820312 16.984375 14.269531 17.105469 C 14.71875 17.222656 15.179688 16.957031 15.300781 16.507812 Z M 7.152344 15.3125 L 16.867188 9.703125 L 16.027344 8.246094 L 6.3125 13.855469 Z M 7.152344 15.3125 "/>
</g>
</svg>
